<mxfile host="app.diagrams.net" modified="2024-03-28T20:20:02.646Z" agent="Mozilla/5.0 (X11; CrOS x86_64 14541.0.0) AppleWebKit/537.36 (KHTML, like Gecko) Chrome/122.0.0.0 Safari/537.36" version="24.2.1" etag="Mq6a7HBPowFYquZGaGfD" type="github">
  <diagram name="Page-1" id="xe5aWmlpCTlDMq8BEGSV">
    <mxGraphModel>
      <root>
        <mxCell id="0" />
        <mxCell id="1" parent="0" />
      </root>
    </mxGraphModel>
  </diagram>
</mxfile>
